HIERARCHY
ROOT Hips
{
  OFFSET 3.13124 94.3669 -3.18751
  CHANNELS  6 Xposition Yposition Zposition Zrotation Xrotation Yrotation
  JOINT LeftUpLeg
  {
    OFFSET 8.64259 1.95398 -2.38835
    CHANNELS 3 Zrotation Xrotation Yrotation
    JOINT LeftLeg
    {
      OFFSET 43.7702 0 0
      CHANNELS 3 Zrotation Xrotation Yrotation
      JOINT LeftFoot
      {
        OFFSET 40.6238 0 0
        CHANNELS 3 Zrotation Xrotation Yrotation
        JOINT LeftToeBase
        {
          OFFSET 12.7242 0 0
          CHANNELS 3 Zrotation Xrotation Yrotation
          End Site
          {
            OFFSET 0 0 0
          }
        }
      }
    }
  }
  JOINT RightUpLeg
  {
    OFFSET -8.2249 1.95398 -2.59336
    CHANNELS 3 Zrotation Xrotation Yrotation
    JOINT RightLeg
    {
      OFFSET 43.5653 0 0
      CHANNELS 3 Zrotation Xrotation Yrotation
      JOINT RightFoot
      {
        OFFSET 40.6238 0 0
        CHANNELS 3 Zrotation Xrotation Yrotation
        JOINT RightToeBase
        {
          OFFSET 12.7242 0 0
          CHANNELS 3 Zrotation Xrotation Yrotation
          End Site
          {
            OFFSET 0 0 0
          }
        }
      }
    }
  }
  JOINT Spine
  {
    OFFSET 0.165834 0.87714 6.61349
    CHANNELS 3 Zrotation Xrotation Yrotation
    JOINT Spine1
    {
      OFFSET 7.38962 1.71661e-005 0
      CHANNELS 3 Zrotation Xrotation Yrotation
      JOINT Spine2
      {
        OFFSET 11.9445 1.14441e-005 0
        CHANNELS 3 Zrotation Xrotation Yrotation
        JOINT Spine3
        {
          OFFSET 14.7254 4.19617e-005 0
          CHANNELS 3 Zrotation Xrotation Yrotation
          JOINT Spine4
          {
            OFFSET 10.9679 0 0
            CHANNELS 3 Zrotation Xrotation Yrotation
            JOINT RightShoulder
            {
              OFFSET 2.46616 -1.6653 3.69651
              CHANNELS 3 Zrotation Xrotation Yrotation
              JOINT RightArm
              {
                OFFSET 13.0012 0 0
                CHANNELS 3 Zrotation Xrotation Yrotation
                JOINT RightForeArm
                {
                  OFFSET 28.7848 1.52588e-005 0
                  CHANNELS 3 Zrotation Xrotation Yrotation
                  JOINT RightHand
                  {
                    OFFSET 26.5688 1.52588e-005 0
                    CHANNELS 3 Zrotation Xrotation Yrotation
                    End Site
                    {
                      OFFSET 0 0 0
                    }
                  }
                }
              }
            }
            JOINT LeftShoulder
            {
              OFFSET 2.38034 -1.29275 -3.75231
              CHANNELS 3 Zrotation Xrotation Yrotation
              JOINT LeftArm
              {
                OFFSET 16.3182 6.10352e-005 0
                CHANNELS 3 Zrotation Xrotation Yrotation
                JOINT LeftForeArm
                {
                  OFFSET 27.0901 0 0
                  CHANNELS 3 Zrotation Xrotation Yrotation
                  JOINT LeftHand
                  {
                    OFFSET 24.5451 1.52588e-005 0
                    CHANNELS 3 Zrotation Xrotation Yrotation
                    End Site
                    {
                      OFFSET 0 0 0
                    }
                  }
                }
              }
            }
            JOINT Neck
            {
              OFFSET 5.0226 -0.0266342 0
              CHANNELS 3 Zrotation Xrotation Yrotation
              JOINT Head
              {
                OFFSET 6.69363 2.86102e-005 0
                CHANNELS 3 Zrotation Xrotation Yrotation
                End Site
                {
                  OFFSET 0 0 0
                }
              }
            }
          }
        }
      }
    }
  }
}
MOTION
Frames:	11
Frame Time:	0.0333333
0.615783 97.8308 -15.0657 129.561 -89.9941 129.613 -172.12 2.80913 93.3527 -8.57668 7.83297 0.616475 63.1956 1.72256 0.90204 28.7808 7.05447e-006 4.14214e-006 179.154 1.81416 88.6111 -7.40862 -0.738017 -0.0494217 62.6382 -1.26308 -0.638808 28.7808 1.37631e-005 2.35286e-005 0.0036747 6.34089 -90.0539 14.1922 -0.00126378 -0.000377106 2.52122 -0.00127868 -0.000327549 -20.0139 -0.00109545 -0.000739596 -0.00129021 -0.0010936 -0.000741889 100.802 -18.4026 -85.5635 4.78946 41.9792 -20.5734 -3.13001 0.291144 -2.78952 -5.37983 -0.319996 -0.0162411 -78.9038 -20.895 94.4663 8.86049 -41.9292 -11.4725 8.82054 42.3749 -10.2646 -3.01272 -0.115383 0.25185 1.76918 -0.000834148 -0.00948505 -7.42388 0.000708537 0.00334355 
0.59875 97.8452 -15.1185 141.209 -89.921 141.292 -172.103 2.70908 93.4014 -8.38642 7.87672 0.595143 63.0963 1.7382 0.914586 28.7808 7.05447e-006 4.14214e-006 179.127 0.927059 88.6583 -5.63403 -0.763654 -0.049422 61.7887 -1.25522 -0.619565 28.7808 1.37631e-005 2.35286e-005 -0.00123319 6.35075 -90.1066 14.1725 -0.0208664 -0.0073873 2.50152 -0.0211722 -0.00647088 -20.0336 -0.017704 -0.0133193 -0.0209809 -0.0176915 -0.0133139 100.801 -18.4477 -85.5509 4.88562 41.9393 -20.6525 -3.11473 0.291142 -2.79677 -5.37983 -0.319996 -0.0162411 -78.881 -20.7718 94.5203 8.84335 -41.8454 -11.366 8.7173 42.1032 -10.1612 -3.05952 -0.115018 -0.262831 2.00561 -0.013904 -0.153594 -7.61691 0.0112031 0.0501557 
0.567933 97.8228 -15.1771 153.64 -89.8939 153.703 -172.098 2.78075 93.3993 -8.55152 7.90174 0.610557 63.2091 1.72589 0.906578 28.7808 7.05447e-006 4.14214e-006 179.161 1.89064 88.6581 -7.62705 -0.782069 -0.0494222 62.6936 -1.30767 -0.664683 28.7808 1.37631e-005 2.35286e-005 -0.00560224 6.354 -90.0899 14.1659 -0.0304728 -0.0276148 2.495 -0.0316465 -0.0262537 -20.0402 -0.0206135 -0.0354963 -0.0275143 -0.0206101 -0.0354981 100.795 -18.4829 -85.5632 4.96165 41.906 -20.7269 -3.11107 0.291152 -2.75688 -5.37983 -0.319996 -0.0162411 -78.8742 -20.6937 94.5316 8.84299 -41.8004 -11.2266 8.71216 42.0652 -10.2427 -2.85579 -0.108768 -0.0636496 2.07415 -0.0202 -0.190512 -7.58755 0.0125263 0.00095963 
0.551908 97.8621 -15.2225 165.326 -89.7825 165.395 -172.089 2.68931 93.4206 -8.52047 7.93951 0.614353 63.0648 1.75417 0.922144 28.7808 7.05447e-006 4.14214e-006 179.138 0.838333 88.6783 -5.64337 -0.732834 -0.0494217 61.7864 -1.22062 -0.598329 28.7808 1.37631e-005 2.35286e-005 -0.006681 6.36617 -90.115 14.1417 -0.0378203 -0.0357094 2.4707 -0.0393556 -0.0340176 -20.0644 -0.0224852 -0.0454197 -0.051798 -0.0224865 -0.0454314 100.765 -18.5902 -85.6295 4.97334 41.9382 -20.7284 -3.13867 0.291153 -2.75318 -5.37983 -0.319996 -0.0162411 -78.8611 -20.602 94.5585 8.85808 -41.813 -11.1995 8.73447 42.5204 -10.0757 -2.60667 -0.0979619 -0.680497 2.07848 -0.016501 -0.325176 -7.49971 0.036391 0.00938352 
0.517576 97.8502 -15.2774 169.441 -89.7449 169.495 -172.057 2.78887 93.4284 -8.72709 7.97698 0.599931 63.0834 1.83303 0.964622 28.7808 7.05447e-006 4.14214e-006 179.163 1.25852 88.6753 -6.53385 -0.802079 -0.0493083 62.2021 -1.3013 -0.654468 28.7808 1.37631e-005 2.35286e-005 -0.0111086 6.37749 -90.0953 14.1189 -0.0485277 -0.0634582 2.44799 -0.0511577 -0.0612735 -20.0872 -0.0243552 -0.0750735 -0.0745109 -0.0243607 -0.0750815 100.733 -18.5665 -85.7166 5.01096 41.9171 -20.6818 -3.13892 0.291152 -2.75608 -5.37983 -0.319996 -0.0162411 -78.8821 -20.5945 94.5053 9.08351 -41.8457 -10.9269 8.80798 42.3094 -10.118 -3.08778 -0.111091 -1.07666 2.25977 0.0104199 -0.310643 -7.55995 0.0634747 -0.0627548 
0.524484 97.8605 -15.3288 164.534 -89.6952 164.573 -172.095 2.73749 93.3998 -8.65043 7.9352 0.615136 63.0362 1.8248 0.961734 28.7808 7.05447e-006 4.14214e-006 179.142 1.13585 88.6584 -6.32432 -0.75455 -0.0470231 62.0811 -1.33129 -0.668719 28.7808 1.37631e-005 2.35286e-005 -0.00697582 6.383 -90.1168 14.108 -0.0462163 -0.0616351 2.43702 -0.0457772 -0.0596884 -20.0981 -0.0258488 -0.0717467 -0.0854869 -0.0258575 -0.0717492 100.756 -18.7199 -85.6523 5.01027 41.9261 -20.7125 -3.14137 0.291155 -2.74576 -5.37983 -0.319996 -0.0162411 -78.8567 -20.3253 94.5459 8.91854 -41.71 -10.9335 8.64536 42.3639 -10.0811 -2.37488 -0.0905677 -0.904504 2.37299 -0.0408446 -0.552061 -7.61831 0.0426707 0.112862 
0.511026 97.8709 -15.3751 162.737 -89.6799 162.799 -172.085 2.75989 93.4347 -8.64866 8.02817 0.635538 63.0066 1.74205 0.914116 28.7808 7.05447e-006 4.14214e-006 179.156 0.848062 88.7066 -5.69752 -0.620407 -0.0396481 61.737 -1.39316 -0.699698 28.7808 1.37631e-005 2.35286e-005 -0.00428791 6.3909 -90.1372 14.0922 -0.0439285 -0.0793864 2.42125 -0.0474536 -0.0773763 -20.1139 -0.0265915 -0.0889435 -0.101254 -0.0266019 -0.0889438 100.741 -18.8059 -85.6835 5.0308 41.9536 -20.7426 -3.16833 0.291159 -2.72656 -5.37983 -0.319996 -0.0162411 -78.9211 -20.2453 94.3954 9.14066 -41.7921 -10.6312 8.84611 42.7484 -10.0322 -2.59708 -0.095694 -1.73432 2.3556 -0.0212863 -0.577074 -7.43677 0.0687423 0.057741 
0.518285 97.8697 -15.4064 156.111 -89.6552 156.124 -172.114 2.78916 93.3696 -8.68874 8.04148 0.644172 62.986 1.83945 0.969623 28.7808 7.05447e-006 4.14214e-006 179.109 0.86092 88.6093 -5.72331 -0.914286 -0.0558802 61.7725 -1.21747 -0.596125 28.7808 1.37631e-005 2.35286e-005 -0.00420573 6.38699 -90.1464 14.0993 -0.0509255 -0.112099 2.42835 -0.0557956 -0.109749 -20.1068 -0.0262086 -0.12222 -0.094134 -0.0262185 -0.122216 100.702 -18.6545 -85.7899 5.0319 41.9125 -20.5941 -3.16139 0.291152 -2.75506 -5.37983 -0.319996 -0.0162411 -78.8937 -20.3623 94.465 9.24278 -41.7485 -10.6104 8.66601 42.7372 -10.0283 -2.13015 -0.0843407 -1.42835 2.28365 0.04647 -0.286524 -7.47173 0.098114 -0.134516 
0.50101 97.8672 -15.433 155.736 -89.5641 155.735 -172.078 2.84754 93.385 -8.93846 8.12026 0.64673 63.0371 1.78572 0.934731 28.7808 7.05447e-006 4.14214e-006 179.178 1.54384 88.6575 -7.29345 -0.420188 -0.02887 62.5296 -1.50849 -0.780217 28.7808 1.37631e-005 2.35286e-005 -0.00984183 6.38772 -90.1017 14.0798 -0.0542366 -0.107244 2.40885 -0.0588919 -0.104754 -20.1263 -0.0243258 -0.118579 -0.113636 -0.0243324 -0.118591 100.688 -19.082 -85.7954 4.91461 41.9992 -20.7143 -3.19214 0.291196 -2.74638 -5.37983 -0.319996 -0.0162411 -78.8756 -19.8777 94.4798 9.02391 -41.6103 -10.4898 8.73129 42.8029 -10.0582 -2.0932 -0.0838381 -1.62659 2.17883 0.0194436 -0.760917 -7.30074 0.12788 0.259843 
0.512648 97.8662 -15.4545 148.966 -89.5255 148.948 -172.087 2.84153 93.3568 -8.90772 8.23452 0.646367 63.0179 1.85785 0.976673 28.7808 7.05447e-006 4.14214e-006 179.11 0.601436 88.5862 -5.39957 -0.763224 -0.046535 61.8573 -1.36031 -0.685656 28.7808 1.37631e-005 2.35286e-005 -0.0111173 6.3885 -90.1271 14.0961 -0.0672615 -0.145042 2.42511 -0.0735767 -0.141947 -20.11 -0.0205173 -0.15855 -0.0973244 -0.0205172 -0.158548 100.59 -18.8784 -86.0554 4.8705 41.9558 -20.4463 -3.16761 0.291847 -2.73221 -5.37983 -0.319996 -0.0162411 -78.9035 -20.0879 94.4262 9.35269 -41.6531 -10.2601 8.60793 42.9063 -10.0237 -1.66069 -0.0732983 -1.59734 1.93601 0.0775091 -0.467667 -7.28314 0.146368 0.0750942 
0.524244 97.8776 -15.4617 141.733 -89.4423 141.69 -172.085 2.87482 93.3337 -9.01694 8.32115 0.644257 63.013 1.82039 0.953127 28.7808 7.05447e-006 4.14214e-006 179.144 1.32857 88.5954 -6.97294 -0.362304 -0.0253356 62.4387 -1.56497 -0.811963 28.7808 1.37631e-005 2.35286e-005 -0.00812603 6.39054 -90.1282 14.0814 -0.0657571 -0.171249 2.41042 -0.0732272 -0.168188 -20.1246 -0.0112627 -0.183091 -0.111992 -0.0112465 -0.183086 100.606 -18.963 -86.0075 4.87662 41.9933 -20.5529 -3.19402 0.292476 -2.71763 -5.37983 -0.319996 -0.0162411 -78.8816 -20.023 94.473 9.2187 -41.6096 -10.3273 8.53502 42.7192 -10.0099 -1.45824 -0.0673383 -1.46362 2.00312 0.0776456 -0.421656 -7.45558 0.140678 0.0474164 
